<mxfile host="app.diagrams.net" modified="2021-09-10T23:47:55.124Z" agent="5.0 (Macintosh; Intel Mac OS X 10_15_7) AppleWebKit/537.36 (KHTML, like Gecko) Chrome/93.0.4577.63 Safari/537.36" etag="tx5SljCqiIGofsMCPtXg" version="15.1.4" type="github">
  <diagram id="v5lT90WFvmj0IPNKoj7h" name="Page-1">
    <mxGraphModel dx="2228" dy="1304" grid="0" gridSize="10" guides="0" tooltips="0" connect="1" arrows="1" fold="1" page="0" pageScale="1" pageWidth="827" pageHeight="1169" math="0" shadow="0">
      <root>
        <mxCell id="0" />
        <mxCell id="1" parent="0" />
        <mxCell id="nxOyHm9exdvSJJ5YbCWH-77" style="edgeStyle=orthogonalEdgeStyle;rounded=0;orthogonalLoop=1;jettySize=auto;html=1;" edge="1" parent="1" source="nxOyHm9exdvSJJ5YbCWH-1" target="nxOyHm9exdvSJJ5YbCWH-75">
          <mxGeometry relative="1" as="geometry" />
        </mxCell>
        <mxCell id="nxOyHm9exdvSJJ5YbCWH-85" value="" style="edgeStyle=orthogonalEdgeStyle;rounded=0;orthogonalLoop=1;jettySize=auto;html=1;" edge="1" parent="1" source="nxOyHm9exdvSJJ5YbCWH-1" target="nxOyHm9exdvSJJ5YbCWH-84">
          <mxGeometry relative="1" as="geometry" />
        </mxCell>
        <mxCell id="nxOyHm9exdvSJJ5YbCWH-1" value="&lt;font style=&quot;font-size: 18px&quot;&gt;Docker image&lt;br&gt;&lt;/font&gt;install java11, ecs-cli, jq ..." style="rounded=0;whiteSpace=wrap;html=1;fillColor=#f8cecc;strokeColor=#b85450;" vertex="1" parent="1">
          <mxGeometry x="112" y="358" width="628" height="93" as="geometry" />
        </mxCell>
        <mxCell id="nxOyHm9exdvSJJ5YbCWH-3" value="ECS&lt;br&gt;dps" style="ellipse;whiteSpace=wrap;html=1;fillColor=#e1d5e7;strokeColor=#9673a6;" vertex="1" parent="1">
          <mxGeometry x="103" y="921" width="120" height="60" as="geometry" />
        </mxCell>
        <mxCell id="nxOyHm9exdvSJJ5YbCWH-7" value="ECS&lt;br&gt;fus" style="ellipse;whiteSpace=wrap;html=1;fillColor=#e1d5e7;strokeColor=#9673a6;" vertex="1" parent="1">
          <mxGeometry x="311" y="917" width="120" height="60" as="geometry" />
        </mxCell>
        <mxCell id="nxOyHm9exdvSJJ5YbCWH-8" value="ECS&lt;br&gt;rhs" style="ellipse;whiteSpace=wrap;html=1;fillColor=#e1d5e7;strokeColor=#9673a6;" vertex="1" parent="1">
          <mxGeometry x="500" y="919" width="120" height="60" as="geometry" />
        </mxCell>
        <mxCell id="nxOyHm9exdvSJJ5YbCWH-9" value="ECS&lt;br&gt;xxx..." style="ellipse;whiteSpace=wrap;html=1;fillColor=#e1d5e7;strokeColor=#9673a6;" vertex="1" parent="1">
          <mxGeometry x="645" y="921" width="120" height="60" as="geometry" />
        </mxCell>
        <mxCell id="nxOyHm9exdvSJJ5YbCWH-38" style="edgeStyle=orthogonalEdgeStyle;rounded=0;orthogonalLoop=1;jettySize=auto;html=1;" edge="1" parent="1" source="nxOyHm9exdvSJJ5YbCWH-11">
          <mxGeometry relative="1" as="geometry">
            <mxPoint x="-81" y="413" as="targetPoint" />
          </mxGeometry>
        </mxCell>
        <mxCell id="nxOyHm9exdvSJJ5YbCWH-11" value="Nexus" style="rhombus;whiteSpace=wrap;html=1;fillColor=#dae8fc;strokeColor=#6c8ebf;" vertex="1" parent="1">
          <mxGeometry x="-140" y="497" width="118" height="115" as="geometry" />
        </mxCell>
        <mxCell id="nxOyHm9exdvSJJ5YbCWH-23" value="" style="edgeStyle=orthogonalEdgeStyle;rounded=0;orthogonalLoop=1;jettySize=auto;html=1;" edge="1" parent="1" source="nxOyHm9exdvSJJ5YbCWH-15" target="nxOyHm9exdvSJJ5YbCWH-22">
          <mxGeometry relative="1" as="geometry" />
        </mxCell>
        <mxCell id="nxOyHm9exdvSJJ5YbCWH-31" value="" style="edgeStyle=orthogonalEdgeStyle;rounded=0;orthogonalLoop=1;jettySize=auto;html=1;" edge="1" parent="1" source="nxOyHm9exdvSJJ5YbCWH-15" target="nxOyHm9exdvSJJ5YbCWH-30">
          <mxGeometry relative="1" as="geometry" />
        </mxCell>
        <mxCell id="nxOyHm9exdvSJJ5YbCWH-45" value="" style="edgeStyle=orthogonalEdgeStyle;rounded=0;orthogonalLoop=1;jettySize=auto;html=1;dashed=1;" edge="1" parent="1" source="nxOyHm9exdvSJJ5YbCWH-15" target="nxOyHm9exdvSJJ5YbCWH-44">
          <mxGeometry relative="1" as="geometry" />
        </mxCell>
        <mxCell id="nxOyHm9exdvSJJ5YbCWH-66" style="edgeStyle=orthogonalEdgeStyle;rounded=0;orthogonalLoop=1;jettySize=auto;html=1;" edge="1" parent="1" source="nxOyHm9exdvSJJ5YbCWH-15">
          <mxGeometry relative="1" as="geometry">
            <mxPoint x="14" y="151" as="targetPoint" />
            <Array as="points">
              <mxPoint x="188" y="109" />
              <mxPoint x="14" y="109" />
            </Array>
          </mxGeometry>
        </mxCell>
        <mxCell id="nxOyHm9exdvSJJ5YbCWH-15" value="AWS CodeCommit /&lt;br&gt;BitBucket" style="rounded=1;whiteSpace=wrap;html=1;fillColor=#dae8fc;strokeColor=#6c8ebf;" vertex="1" parent="1">
          <mxGeometry x="98" y="12" width="179" height="60" as="geometry" />
        </mxCell>
        <mxCell id="nxOyHm9exdvSJJ5YbCWH-22" value="Dockerfile" style="ellipse;whiteSpace=wrap;html=1;rounded=1;strokeColor=#6c8ebf;fillColor=#dae8fc;" vertex="1" parent="1">
          <mxGeometry x="74" y="147" width="110" height="72" as="geometry" />
        </mxCell>
        <mxCell id="nxOyHm9exdvSJJ5YbCWH-25" value="has file" style="text;html=1;align=center;verticalAlign=middle;resizable=0;points=[];autosize=1;strokeColor=none;fillColor=none;" vertex="1" parent="1">
          <mxGeometry x="187" y="80" width="48" height="18" as="geometry" />
        </mxCell>
        <mxCell id="nxOyHm9exdvSJJ5YbCWH-30" value="buildspec.yml" style="ellipse;whiteSpace=wrap;html=1;rounded=1;strokeColor=#6c8ebf;fillColor=#dae8fc;" vertex="1" parent="1">
          <mxGeometry x="199" y="148" width="120" height="67" as="geometry" />
        </mxCell>
        <mxCell id="nxOyHm9exdvSJJ5YbCWH-68" style="edgeStyle=orthogonalEdgeStyle;rounded=0;orthogonalLoop=1;jettySize=auto;html=1;entryX=0;entryY=0.25;entryDx=0;entryDy=0;" edge="1" parent="1" source="nxOyHm9exdvSJJ5YbCWH-34" target="nxOyHm9exdvSJJ5YbCWH-1">
          <mxGeometry relative="1" as="geometry" />
        </mxCell>
        <mxCell id="nxOyHm9exdvSJJ5YbCWH-34" value="entrypoint.sh" style="ellipse;whiteSpace=wrap;html=1;rounded=1;strokeColor=#6c8ebf;fillColor=#dae8fc;" vertex="1" parent="1">
          <mxGeometry x="-139" y="352" width="120" height="60" as="geometry" />
        </mxCell>
        <mxCell id="nxOyHm9exdvSJJ5YbCWH-36" value="run java -jar -xxx" style="text;html=1;align=center;verticalAlign=middle;resizable=0;points=[];autosize=1;strokeColor=none;fillColor=none;" vertex="1" parent="1">
          <mxGeometry x="-11" y="357" width="99" height="18" as="geometry" />
        </mxCell>
        <mxCell id="nxOyHm9exdvSJJ5YbCWH-39" value="send .jar file to" style="text;html=1;align=center;verticalAlign=middle;resizable=0;points=[];autosize=1;strokeColor=none;fillColor=none;" vertex="1" parent="1">
          <mxGeometry x="-79" y="451" width="88" height="18" as="geometry" />
        </mxCell>
        <mxCell id="nxOyHm9exdvSJJ5YbCWH-40" value="" style="curved=1;endArrow=classic;html=1;exitX=0.5;exitY=1;exitDx=0;exitDy=0;" edge="1" parent="1" source="nxOyHm9exdvSJJ5YbCWH-11">
          <mxGeometry width="50" height="50" relative="1" as="geometry">
            <mxPoint x="-137" y="555" as="sourcePoint" />
            <mxPoint x="-78" y="737" as="targetPoint" />
            <Array as="points">
              <mxPoint x="-123" y="649" />
              <mxPoint x="-78" y="718" />
            </Array>
          </mxGeometry>
        </mxCell>
        <mxCell id="nxOyHm9exdvSJJ5YbCWH-13" value="some .jar files" style="ellipse;shape=cloud;whiteSpace=wrap;html=1;fillColor=#f5f5f5;strokeColor=#666666;fontColor=#333333;" vertex="1" parent="1">
          <mxGeometry x="-134" y="719" width="120" height="80" as="geometry" />
        </mxCell>
        <mxCell id="nxOyHm9exdvSJJ5YbCWH-47" value="" style="edgeStyle=orthogonalEdgeStyle;rounded=0;orthogonalLoop=1;jettySize=auto;html=1;" edge="1" parent="1" source="nxOyHm9exdvSJJ5YbCWH-44" target="nxOyHm9exdvSJJ5YbCWH-46">
          <mxGeometry relative="1" as="geometry" />
        </mxCell>
        <mxCell id="nxOyHm9exdvSJJ5YbCWH-44" value="AWS CodePipeline" style="whiteSpace=wrap;html=1;rounded=1;strokeColor=#6c8ebf;fillColor=#dae8fc;" vertex="1" parent="1">
          <mxGeometry x="386.5" y="12" width="120" height="60" as="geometry" />
        </mxCell>
        <mxCell id="nxOyHm9exdvSJJ5YbCWH-86" style="edgeStyle=orthogonalEdgeStyle;rounded=0;orthogonalLoop=1;jettySize=auto;html=1;" edge="1" parent="1" source="nxOyHm9exdvSJJ5YbCWH-46" target="nxOyHm9exdvSJJ5YbCWH-1">
          <mxGeometry relative="1" as="geometry" />
        </mxCell>
        <mxCell id="nxOyHm9exdvSJJ5YbCWH-46" value="AWS CodeBuild" style="whiteSpace=wrap;html=1;rounded=1;strokeColor=#6c8ebf;fillColor=#dae8fc;" vertex="1" parent="1">
          <mxGeometry x="586.5" y="12" width="120" height="60" as="geometry" />
        </mxCell>
        <mxCell id="nxOyHm9exdvSJJ5YbCWH-56" value="Save Image" style="text;html=1;align=center;verticalAlign=middle;resizable=0;points=[];autosize=1;strokeColor=none;fillColor=none;" vertex="1" parent="1">
          <mxGeometry x="756" y="385" width="74" height="18" as="geometry" />
        </mxCell>
        <mxCell id="nxOyHm9exdvSJJ5YbCWH-58" value="&lt;span style=&quot;font-size: 18px&quot;&gt;AWS CodeDeploy / ECS-CLI inside Docker&lt;/span&gt;" style="rounded=0;whiteSpace=wrap;html=1;fillColor=#dae8fc;strokeColor=#6c8ebf;" vertex="1" parent="1">
          <mxGeometry x="112" y="681" width="628" height="93" as="geometry" />
        </mxCell>
        <mxCell id="nxOyHm9exdvSJJ5YbCWH-60" value="" style="endArrow=classic;html=1;" edge="1" parent="1">
          <mxGeometry width="50" height="50" relative="1" as="geometry">
            <mxPoint x="205" y="779" as="sourcePoint" />
            <mxPoint x="174" y="914" as="targetPoint" />
          </mxGeometry>
        </mxCell>
        <mxCell id="nxOyHm9exdvSJJ5YbCWH-61" value="" style="endArrow=classic;html=1;" edge="1" parent="1">
          <mxGeometry width="50" height="50" relative="1" as="geometry">
            <mxPoint x="378" y="780" as="sourcePoint" />
            <mxPoint x="369" y="915" as="targetPoint" />
          </mxGeometry>
        </mxCell>
        <mxCell id="nxOyHm9exdvSJJ5YbCWH-62" value="" style="endArrow=classic;html=1;" edge="1" parent="1">
          <mxGeometry width="50" height="50" relative="1" as="geometry">
            <mxPoint x="560" y="779" as="sourcePoint" />
            <mxPoint x="560" y="914" as="targetPoint" />
          </mxGeometry>
        </mxCell>
        <mxCell id="nxOyHm9exdvSJJ5YbCWH-63" value="" style="endArrow=classic;html=1;" edge="1" parent="1">
          <mxGeometry width="50" height="50" relative="1" as="geometry">
            <mxPoint x="684" y="778" as="sourcePoint" />
            <mxPoint x="697" y="913" as="targetPoint" />
          </mxGeometry>
        </mxCell>
        <mxCell id="nxOyHm9exdvSJJ5YbCWH-67" value="entrypoint.sh" style="ellipse;whiteSpace=wrap;html=1;rounded=1;strokeColor=#6c8ebf;fillColor=#dae8fc;" vertex="1" parent="1">
          <mxGeometry x="-48" y="153" width="110" height="72" as="geometry" />
        </mxCell>
        <mxCell id="nxOyHm9exdvSJJ5YbCWH-69" value="" style="endArrow=classic;html=1;" edge="1" parent="1">
          <mxGeometry width="50" height="50" relative="1" as="geometry">
            <mxPoint x="233" y="11" as="sourcePoint" />
            <mxPoint x="283" y="-39" as="targetPoint" />
          </mxGeometry>
        </mxCell>
        <mxCell id="nxOyHm9exdvSJJ5YbCWH-70" value="Concourse" style="rounded=1;whiteSpace=wrap;html=1;fillColor=#d5e8d4;strokeColor=#82b366;" vertex="1" parent="1">
          <mxGeometry x="261" y="-102" width="120" height="60" as="geometry" />
        </mxCell>
        <mxCell id="nxOyHm9exdvSJJ5YbCWH-71" value="" style="endArrow=classic;html=1;" edge="1" parent="1">
          <mxGeometry width="50" height="50" relative="1" as="geometry">
            <mxPoint x="352" y="-39" as="sourcePoint" />
            <mxPoint x="407" y="7" as="targetPoint" />
          </mxGeometry>
        </mxCell>
        <mxCell id="nxOyHm9exdvSJJ5YbCWH-78" style="edgeStyle=orthogonalEdgeStyle;rounded=0;orthogonalLoop=1;jettySize=auto;html=1;entryX=0.5;entryY=0;entryDx=0;entryDy=0;" edge="1" parent="1" source="nxOyHm9exdvSJJ5YbCWH-75" target="nxOyHm9exdvSJJ5YbCWH-58">
          <mxGeometry relative="1" as="geometry" />
        </mxCell>
        <mxCell id="nxOyHm9exdvSJJ5YbCWH-75" value="&lt;span style=&quot;font-size: 18px&quot;&gt;Concourse / AWS Pipeline&lt;/span&gt;" style="rounded=0;whiteSpace=wrap;html=1;fillColor=#d5e8d4;strokeColor=#82b366;" vertex="1" parent="1">
          <mxGeometry x="113" y="539" width="626" height="48" as="geometry" />
        </mxCell>
        <mxCell id="nxOyHm9exdvSJJ5YbCWH-84" value="&lt;font face=&quot;helvetica&quot;&gt;AWS ECR&lt;br&gt;&lt;/font&gt;" style="rounded=1;whiteSpace=wrap;html=1;fillColor=#dae8fc;strokeColor=#6c8ebf;" vertex="1" parent="1">
          <mxGeometry x="853" y="375" width="120" height="60" as="geometry" />
        </mxCell>
      </root>
    </mxGraphModel>
  </diagram>
</mxfile>
